<?xml version="1.0" standalone="no"?>
<!DOCTYPE svg PUBLIC "-//W3C//DTD SVG 20010904//EN"
 "http://www.w3.org/TR/2001/REC-SVG-20010904/DTD/svg10.dtd">
<svg version="1.0" xmlns="http://www.w3.org/2000/svg"
 width="512.000000pt" height="512.000000pt" viewBox="0 0 512.000000 512.000000"
 preserveAspectRatio="xMidYMid meet">
<metadata>
Created by potrace 1.11, written by Peter Selinger 2001-2013
</metadata>
<g transform="translate(0.000000,512.000000) scale(0.100000,-0.100000)"
fill="#000000" stroke="none">
<path d="M2330 4431 c-8 -5 -51 -18 -95 -30 -82 -22 -224 -89 -304 -144 -180
-121 -342 -325 -417 -522 -21 -58 -42 -134 -69 -261 -4 -17 -25 -28 -102 -54
-123 -40 -301 -124 -414 -196 -101 -63 -216 -179 -271 -272 l-38 -63 0 -125
c0 -113 2 -129 25 -174 27 -53 97 -144 148 -191 33 -30 199 -144 252 -172 265
-142 695 -255 1115 -293 199 -18 601 -18 800 0 370 33 754 126 1005 241 41 19
78 35 81 35 13 0 201 124 253 167 69 58 131 132 171 205 28 51 30 58 30 179 0
84 -4 135 -13 150 -63 118 -178 239 -297 314 -112 71 -290 155 -413 195 -77
26 -98 37 -102 54 -63 292 -126 426 -282 601 -117 133 -252 227 -429 301 -42
18 -142 47 -166 49 -3 0 -10 3 -14 8 -10 10 -435 8 -454 -2z m445 -311 c44
-12 85 -25 90 -29 6 -5 30 -16 55 -25 117 -46 289 -210 357 -341 69 -134 94
-222 100 -362 l6 -122 -104 -49 c-57 -27 -142 -59 -189 -71 -47 -12 -93 -25
-103 -28 -17 -4 -18 -3 -3 25 36 70 58 184 58 297 -1 129 -3 142 -31 217 -40
104 -148 205 -266 250 -52 20 -78 23 -190 22 -148 0 -193 -13 -295 -85 -153
-107 -207 -263 -178 -516 4 -34 12 -71 18 -82 5 -11 10 -27 10 -36 0 -9 9 -34
19 -56 18 -36 18 -39 3 -35 -9 3 -55 15 -102 27 -47 12 -132 44 -189 71 l-104
49 6 122 c6 140 31 228 100 362 68 131 240 295 357 341 25 9 50 21 55 25 6 4
53 19 104 32 125 32 296 31 416 -3z m-438 -750 c50 -22 130 -99 139 -135 21
-85 -129 -68 -232 27 -53 49 -66 94 -35 120 25 20 61 16 128 -12z m593 -16 c0
-70 -137 -174 -229 -174 -77 0 -82 51 -13 120 52 52 92 76 149 88 43 10 93 -8
93 -34z m-320 -271 c46 -42 49 -82 10 -127 -38 -42 -82 -48 -123 -16 -38 30
-49 71 -29 111 31 62 93 76 142 32z m-1169 -204 c73 -25 138 -115 139 -191 0
-77 -77 -169 -156 -186 -89 -19 -175 21 -215 100 -32 62 -24 154 17 205 55 70
138 97 215 72z m2379 -11 c70 -36 103 -86 108 -162 3 -49 0 -71 -17 -104 -42
-82 -131 -121 -222 -98 -57 15 -81 34 -121 95 -48 75 -31 169 43 237 62 57
137 68 209 32z m-1177 -277 c56 -24 93 -72 108 -139 10 -43 10 -57 -5 -95 -33
-88 -100 -137 -186 -137 -86 0 -153 49 -186 137 -15 38 -15 52 -5 95 29 129
153 191 274 139z"/>
<path d="M948 1402 c-104 -208 -188 -380 -188 -383 0 -6 233 -124 256 -131 10
-3 404 768 404 790 0 4 -39 20 -87 36 -49 16 -105 38 -125 48 -21 10 -45 18
-55 17 -14 0 -65 -95 -205 -377z"/>
<path d="M3920 1765 c-14 -8 -69 -29 -122 -47 -54 -18 -98 -36 -98 -40 0 -22
394 -793 404 -790 23 7 256 125 256 131 0 3 -84 175 -187 383 -201 403 -196
395 -253 363z"/>
<path d="M2410 1103 l0 -423 150 0 150 0 0 423 0 423 -150 0 -150 0 0 -423z"/>
</g>
</svg>
