<?xml version="1.0" standalone="no"?>
<!DOCTYPE svg PUBLIC "-//W3C//DTD SVG 20010904//EN"
 "http://www.w3.org/TR/2001/REC-SVG-20010904/DTD/svg10.dtd">
<svg version="1.0" xmlns="http://www.w3.org/2000/svg"
 width="512.000000pt" height="512.000000pt" viewBox="0 0 512.000000 512.000000"
 preserveAspectRatio="xMidYMid meet">
<metadata>
Created by potrace 1.11, written by Peter Selinger 2001-2013
</metadata>
<g transform="translate(0.000000,512.000000) scale(0.100000,-0.100000)"
fill="#000000" stroke="none">
<path d="M2448 5035 c-2 -2 -34 -6 -71 -10 -81 -8 -76 -7 -197 -39 -534 -141
-955 -594 -1056 -1135 -8 -47 -17 -95 -19 -106 -4 -16 -28 -27 -112 -54 -59
-19 -115 -38 -123 -42 -8 -4 -55 -24 -105 -44 -87 -36 -265 -124 -275 -136 -3
-3 -19 -13 -36 -22 -55 -28 -189 -133 -253 -197 -130 -133 -191 -255 -197
-400 -4 -98 13 -174 56 -260 129 -256 500 -499 993 -650 119 -37 249 -73 307
-84 14 -3 68 -14 120 -25 52 -11 109 -22 125 -25 17 -2 59 -9 95 -15 36 -5 90
-13 120 -16 30 -3 66 -8 80 -10 45 -7 197 -19 365 -30 77 -5 511 -6 590 -1
157 10 263 18 285 21 14 2 50 6 80 10 30 3 66 8 80 10 14 2 50 7 80 10 47 6
312 54 375 68 221 52 487 138 640 207 340 154 566 334 665 530 76 151 76 319
0 470 -125 247 -465 477 -935 631 -55 18 -103 35 -106 38 -4 3 -10 29 -13 56
-22 189 -114 429 -228 598 -63 95 -105 144 -196 234 -216 214 -492 354 -797
404 -60 10 -329 21 -337 14z m312 -381 c341 -65 641 -295 788 -606 73 -154
101 -272 107 -456 5 -120 4 -124 -19 -145 -29 -27 -148 -87 -241 -122 -63 -24
-283 -85 -305 -85 -5 0 -1 19 9 43 66 154 86 252 86 422 0 67 -6 144 -14 175
-65 263 -291 435 -586 445 -129 4 -215 -14 -331 -70 -210 -101 -317 -282 -323
-541 -2 -145 26 -290 84 -421 13 -29 21 -53 17 -53 -22 0 -247 63 -305 84 -82
32 -198 88 -237 116 l-29 21 4 130 c2 71 6 133 9 137 2 4 7 28 10 54 4 26 16
77 27 114 118 383 434 668 834 754 106 23 305 24 415 4z m-520 -1001 c121 -45
218 -138 225 -217 5 -51 -22 -71 -94 -71 -139 1 -310 131 -313 237 -2 64 83
88 182 51z m785 11 c8 -4 22 -18 29 -33 21 -41 2 -86 -62 -151 -70 -70 -155
-112 -235 -116 -51 -3 -61 -1 -83 21 -42 42 -18 113 59 181 88 78 225 124 292
98z m-413 -373 c30 -12 67 -48 78 -75 44 -118 -54 -232 -175 -202 -11 2 -22 5
-25 5 -11 2 -58 48 -68 67 -17 33 -21 91 -7 118 7 14 11 27 8 29 -7 8 63 58
94 66 30 9 59 6 95 -8z m-1513 -301 c61 -19 143 -100 164 -162 45 -133 -12
-275 -137 -341 -55 -29 -184 -31 -236 -3 -68 36 -133 111 -146 169 -30 129 9
239 106 303 79 53 156 63 249 34z m3113 -2 c55 -19 120 -78 148 -134 19 -38
24 -65 24 -119 0 -89 -25 -146 -93 -207 -131 -118 -339 -76 -423 86 -32 62
-31 175 2 240 64 126 207 182 342 134z m-1561 -363 c190 -65 244 -314 98 -450
-64 -59 -108 -78 -189 -78 -177 -1 -304 158 -265 331 36 159 200 250 356 197z"/>
<path d="M449 1025 l-247 -495 160 -81 c91 -46 164 -77 169 -72 12 12 511
1014 507 1018 -2 1 -34 13 -72 25 -39 13 -112 40 -165 61 -52 22 -97 39 -100
39 -3 -1 -117 -223 -252 -495z"/>
<path d="M4335 1489 c-38 -17 -110 -44 -160 -61 -49 -17 -92 -32 -93 -34 -4
-3 496 -1005 508 -1017 9 -10 320 143 320 158 1 19 -485 984 -495 984 -5 0
-41 -14 -80 -30z"/>
<path d="M2375 631 l0 -549 183 0 c179 1 182 1 183 22 1 29 1 1037 0 1059 -1
15 -17 17 -183 17 l-183 0 0 -549z"/>
</g>
</svg>
